<?xml version="1.0" encoding="UTF-8" standalone="no"?>
<!DOCTYPE svg PUBLIC "-//W3C//DTD SVG 1.1//EN" "http://www.w3.org/Graphics/SVG/1.1/DTD/svg11.dtd">
<svg width="100%" height="100%" viewBox="0 0 1190 283" version="1.1" xmlns="http://www.w3.org/2000/svg" xmlns:xlink="http://www.w3.org/1999/xlink" xml:space="preserve" xmlns:serif="http://www.serif.com/" style="fill-rule:evenodd;clip-rule:evenodd;stroke-linejoin:round;stroke-miterlimit:2;">
    <g transform="matrix(1,0,0,1,-176.798,-353.5)">
        <path id="path1" d="M246,635.098C246,634.603 241.214,623.015 235.364,609.348C223.375,581.342 225.229,585.627 198.005,523C186.888,497.425 177.573,475.956 177.305,475.291C176.928,474.356 191.466,474.012 241.659,473.772C302.358,473.481 306.815,473.34 311.433,471.574C318.144,469.007 324.273,462.669 326.58,455.91C329.193,448.252 329.209,430.568 326.608,423.08C324.206,416.161 317.901,409.908 310.221,406.827C304.637,404.587 303.445,404.519 260.581,404.016L216.663,403.5L207.375,380.7L198.087,357.899L258.293,358.242C317.533,358.58 318.62,358.622 326,360.857C348.111,367.554 363.728,383.938 368.552,405.5C369.491,409.7 370.339,419.901 370.67,431C371.265,450.941 370.045,462.149 365.915,474.69C361.564,487.904 351.477,499.232 338.5,505.48C324.963,511.997 323.02,512.265 284.5,512.912L249.5,513.5L248.626,574.75C248.145,608.495 247.359,636 246.876,636C246.394,636 246,635.594 246,635.098ZM1189.75,583.247L1015,582.994L1015,576L1366,576L1366,579.441C1366,581.334 1365.66,583.021 1365.25,583.191C1364.84,583.361 1285.86,583.386 1189.75,583.247L1189.75,583.247ZM639.718,563.963C630.744,561.721 624.984,556.194 622.416,547.358C620.085,539.34 620.803,524.067 623.78,518.347C628.019,510.202 636.654,505.563 647.5,505.604C658.739,505.646 667.341,511.7 670.441,521.75C671.077,523.812 670.816,524 667.317,523.997C663.953,523.995 663.263,523.559 661.5,520.328C658.849,515.469 655.47,513.142 649.99,512.403C643.927,511.584 637.24,513.532 633.923,517.082C628.726,522.646 627.714,540.289 632.063,549.522C634.686,555.09 639.02,557.467 646.5,557.439C654.38,557.409 658.438,555.211 661.233,549.457C663.242,545.322 663.678,545 667.267,545C670.818,545 671.078,545.185 670.439,547.25C669.164,551.373 666.222,556.475 663.834,558.702C658.767,563.429 647.456,565.896 639.718,563.963ZM814.75,563.253L811,562.879L811,505.96L853.5,506.5L854.127,513L819,513L819,531L849,531L849,538L819,538L819,557L854,557L853.982,563.5L836.241,563.563C826.483,563.598 816.812,563.458 814.749,563.253L814.75,563.253ZM556,562.726C556,562.224 568.976,530.332 574.198,518C576.411,512.775 578.695,507.915 579.274,507.2C579.91,506.415 581.933,506.019 584.387,506.2L588.446,506.5L595.287,522.5C599.049,531.3 604.156,543.45 606.636,549.5C609.116,555.55 611.386,561.063 611.68,561.75C612.061,562.641 610.964,562.996 607.857,562.988L603.5,562.975L600.66,555.582C597.315,546.872 597.424,546.917 581,547.429L570.5,547.756L567.41,555.128C564.324,562.488 564.312,562.501 560.16,562.808C557.872,562.977 556,562.94 556,562.726ZM593.541,538.25C592.644,534.604 584.979,517.105 584.019,516.512C583.162,515.982 574,536.888 574,539.375C574,540.768 575.443,541 584.108,541L594.217,541L593.541,538.25ZM683.373,550.802C686.262,544.036 691.522,531.414 695.062,522.754C701.214,507.707 701.64,506.981 704.65,506.411C706.383,506.083 708.569,505.969 709.509,506.157C710.693,506.395 714.866,515.051 723.109,534.372C729.649,549.701 735,562.414 735,562.622C735,562.83 733.049,563 730.665,563L726.329,563L723.501,555.588L720.672,548.177L709.586,547.485C693.423,546.477 694.077,546.222 690.307,555L687.085,562.5L682.604,562.802L678.122,563.105L683.373,550.802ZM717,539.905C717,539.303 714.677,533.455 711.838,526.909L706.676,515.009L704.744,519.254C702.502,524.183 696,540.074 696,540.626C696,540.832 700.725,541 706.5,541C713.441,541 717,540.629 717,539.905ZM747.234,534.75L747.5,506.5L762,506.535C777.739,506.574 781.415,507.345 787.759,511.94C793.761,516.288 796.23,522.507 796.321,533.5C796.414,544.896 794.901,550.067 789.878,555.517C784.037,561.854 779.736,563 761.806,563L746.969,563L747.234,534.75ZM779.965,554.455C785.322,551.322 787.306,546.991 787.814,537.322C788.803,518.473 783.405,513.018 763.75,513.006L755,513L755,557.221L765.75,556.851C774.276,556.558 777.217,556.062 779.965,554.455ZM869,563L869,507.176L872.963,506.506C875.143,506.138 877.356,506.102 877.88,506.426C878.405,506.75 882.104,512.525 886.1,519.258C890.096,525.991 894.684,533.455 896.296,535.845L899.226,540.189L902.14,535.845C903.742,533.455 908.247,525.988 912.149,519.25L919.245,507L929,507L929,563L921,563L921,519.582L915.954,527.541C913.178,531.918 908.839,538.988 906.311,543.25C902.364,549.905 901.329,551 898.982,551C896.601,551 895.591,549.872 891.149,542.25C888.345,537.438 884.025,530.35 881.551,526.5L877.052,519.5L877.026,541.25L877,563L869,563ZM966,563L966,540.69L954,523.959C947.4,514.758 942,506.928 942,506.56C942,506.192 944.103,506.028 946.674,506.195L951.348,506.5L960.831,519.776L970.315,533.051L973.669,528.276C989.539,505.681 988.164,507.241 992.842,506.52C995.23,506.151 997.413,506.08 997.694,506.361C997.975,506.641 992.759,514.438 986.103,523.686L974.001,540.5L974,563L966,563ZM288,561.285C288,560.872 291.856,552.392 296.568,542.441L305.136,524.348L316.471,522.653C322.706,521.721 330.327,520.092 333.407,519.032C349.026,513.658 361.648,504.05 369.62,491.466L374.349,484L404.742,484C433.234,484 435.1,483.891 434.576,482.25C434.269,481.288 427.087,463.186 418.617,442.024L403.216,403.547L401.735,407.024C400.92,408.936 397.575,416.575 394.301,424C391.028,431.425 386.808,441.064 384.925,445.42L381.5,453.34L380.864,432.42C380.322,414.63 379.853,410.079 377.724,402C374.554,389.97 371.209,382.448 365.427,374.346L360.851,367.933L363.513,360.966L366.175,354L428.11,354L430.435,359.256C433.33,365.803 474.177,466.122 492.017,510.5C499.313,528.65 506.965,547.663 509.02,552.75L512.758,562L464.35,562L457.257,543.75L450.164,525.5L402.004,525.24L353.844,524.981L350.672,532.177C348.927,536.135 345.226,544.352 342.447,550.437L337.394,561.5L312.697,561.767C299.114,561.915 288,561.697 288,561.285ZM806,471.639C795.986,468.711 789.311,462.753 787.067,454.739C785.223,448.154 785.937,447 791.85,447L796.763,447L797.926,451.622C800.169,460.53 806.335,463.986 820,463.993C828.458,463.998 833.092,462.226 836.391,457.728C838.916,454.284 838.869,447.634 836.298,444.74C834.241,442.425 825.371,438.024 822.731,438.01C821.759,438.005 816.005,436.397 809.946,434.439C794.047,429.299 788.984,424.306 789.016,413.8C789.057,400.601 799.831,393 818.5,393C834.165,393 843.555,398.221 846.575,408.61C847.433,411.56 847.853,414.43 847.508,414.987C847.164,415.544 844.752,416 842.148,416L837.415,416L836.235,411.587C834.742,406.008 831.036,403.259 823.128,401.866C811.043,399.737 801.356,403.927 800.309,411.734C799.23,419.775 802.528,422.3 820.137,426.909C843.775,433.097 849.19,437.499 849.313,450.628C849.395,459.304 845.701,465.309 837.799,469.351C832.823,471.896 830.897,472.275 821.332,472.594C814.298,472.828 808.922,472.493 806,471.639ZM881.907,471.475C870.045,468.596 863.701,461.799 862.794,451L862.5,447.5L867.531,447.205L872.561,446.911L873.811,451.582C876.249,460.699 883.926,464.617 897.746,463.798C910.038,463.069 914.333,459.815 914.333,451.233C914.333,445.102 910.611,441.516 901.525,438.893C875.317,431.33 870.308,429.12 866.835,423.589C865.281,421.113 864.959,419.075 865.214,413.323C865.489,407.098 865.928,405.657 868.522,402.452C873.616,396.159 879.63,393.733 891.441,393.207C904.893,392.609 911.744,394.481 917.624,400.36C921.768,404.505 924.748,411.609 923.598,414.605C922.759,416.791 914.095,416.49 913.375,414.25C910.65,405.771 907.964,403.43 899.056,401.773C891.841,400.431 883.28,401.983 879.429,405.33C876.524,407.855 875.37,413.281 876.894,417.25C878.423,421.231 882.513,423.291 896.004,426.878C910.569,430.751 915.613,432.843 920.292,436.951C924.787,440.898 926.417,445.673 925.686,452.752C925.039,459.022 921.508,464.905 916.554,467.967C908.899,472.698 893.404,474.267 881.907,471.475ZM1112.93,471.633C1102.73,468.882 1093.76,460.45 1090.97,450.99C1087.4,438.9 1088.05,420.979 1092.4,411.5C1093.66,408.75 1096.67,404.518 1099.09,402.096C1105.62,395.57 1110.61,393.676 1122.5,393.208C1135.55,392.695 1142.15,394.929 1149.61,402.391C1157.43,410.214 1159.4,416.24 1159.46,432.5C1159.51,449.205 1157.39,456.255 1150.23,463.196C1147.63,465.72 1144.15,468.454 1142.5,469.271C1135.22,472.877 1121.58,473.966 1112.93,471.633ZM1136.12,461.206C1143.24,457.489 1146.59,452.066 1148.01,442C1149.17,433.758 1148.45,422.618 1146.38,416.684C1143.21,407.625 1136.94,403.086 1126.42,402.242C1107.04,400.686 1097.32,415.549 1100.95,441.179C1102.37,451.179 1104.99,456.364 1110.51,460.152C1115.17,463.349 1116.44,463.682 1124.64,463.864C1129.58,463.974 1131.81,463.457 1136.12,461.206ZM1314.74,471.912C1304.98,469.614 1296.77,462.251 1293,452.419C1289.86,444.234 1289.12,428.091 1291.47,419C1294.44,407.512 1300.22,400.072 1309.5,395.801C1313.8,393.823 1316.11,393.5 1326,393.5C1336.58,393.5 1337.91,393.717 1342.65,396.216C1348.77,399.442 1353.37,404.706 1355.47,410.872C1357.82,417.759 1357.69,418 1351.61,418C1346.31,418 1346.21,417.949 1345.6,414.694C1344.89,410.904 1339.03,404.711 1334.5,402.96C1332.85,402.323 1328.72,401.79 1325.32,401.776C1313.79,401.728 1305.71,408.025 1302.87,419.268C1301.25,425.707 1301.29,440.947 1302.96,446.957C1306.05,458.126 1313.68,464 1325.1,464C1335.69,464 1343.99,458.262 1345.7,449.75C1346.15,447.49 1346.81,446.979 1349.38,446.885C1352.95,446.753 1356.34,447.043 1356.84,447.524C1357.03,447.704 1356.44,450.427 1355.52,453.575C1353.25,461.401 1346.64,468.277 1338.78,471.011C1332.66,473.136 1321.68,473.548 1314.74,471.912L1314.74,471.912ZM555,471L555,394L575.822,394C599.925,394 603.677,394.799 610.527,401.387C615.693,406.355 617.49,411.921 616.624,420.275C615.918,427.086 614.369,430.367 609.835,434.654C604.389,439.805 599.046,441 581.465,441L566,441L566,471L555,471ZM600.102,429.715C608.403,424.134 607.817,409.498 599.115,405.059C595.589,403.26 593.245,403 580.54,403L566,403L566,432L581.352,432C595.684,432 596.93,431.848 600.102,429.715ZM633,471L633,394L654.25,394.006C677.329,394.012 681.091,394.591 687.729,399.158C693.01,402.791 695.066,406.633 695.746,414.138C696.788,425.63 691.235,435.352 682.057,438.101C679.826,438.77 678,439.753 678,440.285C678,440.817 682.725,447.738 688.5,455.663C694.275,463.589 699,470.282 699,470.537C699,470.792 696.108,471 692.573,471L686.146,471L676.073,456.906C670.533,449.154 666,442.404 666,441.906C666,441.408 661.05,441 655,441L644,441L644,471L633,471ZM674.461,430.906C681.074,429.24 684.29,425.282 684.741,418.251C685.195,411.184 682.755,406.631 677.292,404.349C672.561,402.372 661.362,401.544 651.659,402.453L644,403.171L644,430.879L647.75,431.272C656.004,432.135 670.36,431.938 674.461,430.906ZM715,471L715,394L774.115,394L773.5,402.5L726,403.036L726,426.959L767.5,427.5L768.115,436L726,436L726,461.964L774.5,462.5L775.115,471L715,471ZM960,471L960,403L933,403L933,394L998,394L998,403L972,403L972,471L960,471ZM1011,471L1011,393.897L1034.25,394.199C1056.75,394.49 1057.66,394.58 1062.49,397C1069.38,400.448 1073.24,406.175 1073.79,413.756C1074.62,425.228 1069.53,434.159 1060.19,437.619C1054.16,439.85 1054.33,439.636 1056.67,442.254C1057.78,443.489 1062.24,449.611 1066.59,455.858C1070.94,462.105 1075.12,468.067 1075.87,469.108C1077.18,470.912 1076.93,471 1070.63,471C1063.03,471 1064.85,472.743 1051,452.178L1043.5,441.04L1032.75,441.02L1022,441L1022,471L1011,471ZM1052.3,430.933C1054.39,430.352 1057.51,428.621 1059.23,427.087C1061.93,424.674 1062.4,423.502 1062.73,418.399C1063.03,413.709 1062.68,411.822 1061.03,409.19C1057.81,404.052 1054.26,403.115 1037.4,402.944L1022.5,402.793L1022.22,416.096C1022.07,423.413 1022.16,429.984 1022.44,430.7C1023.07,432.337 1046.59,432.52 1052.3,430.933ZM1176.55,466.75C1176.24,464.412 1176.1,447.2 1176.24,428.5L1176.5,394.5L1189.5,394.012L1229.5,454.766L1230.5,394.5L1236.25,394.2L1242,393.9L1242,471L1228.5,470.966L1214,449.289C1206.03,437.367 1197.03,424.077 1194,419.758L1188.5,411.904L1188.24,441.452L1187.97,471L1177.12,471L1176.55,466.75ZM1263,471L1263,394L1274,394L1274,471L1263,471Z" style="fill:#f34537;fill-rule:nonzero;stroke:#f34537;stroke-width:1px;"/>
    </g>
</svg>
