<?xml version="1.0" encoding="UTF-8" standalone="no"?>
<!DOCTYPE svg PUBLIC "-//W3C//DTD SVG 1.1//EN" "http://www.w3.org/Graphics/SVG/1.1/DTD/svg11.dtd">
<svg width="100%" height="100%" viewBox="0 0 608 590" version="1.1" xmlns="http://www.w3.org/2000/svg" xmlns:xlink="http://www.w3.org/1999/xlink" xml:space="preserve" xmlns:serif="http://www.serif.com/" style="fill-rule:evenodd;clip-rule:evenodd;stroke-linejoin:round;stroke-miterlimit:2;">
    <g transform="matrix(1,0,0,1,-466.645,-193.516)">
        <path id="Logo" d="M742,781.588C723.679,779.797 714.729,778.372 700,774.898C652.19,763.622 608.546,741.912 572,711.227C560.477,701.552 538.978,679.606 529.653,668C510.92,644.685 490.709,608.196 482.018,582C477.094,567.158 471.663,545.39 469.418,531.5C466.941,516.179 466.333,472.139 468.368,455.461C476.521,388.631 506.119,329.178 554.811,281.829C607.809,230.292 673.6,200.591 747.379,194.895C873.456,185.162 996.259,257.081 1048.08,371C1083.34,448.514 1081.99,540.244 1044.5,614.991C1003.46,696.838 928.311,755.054 837.267,775.54C809.605,781.764 769.712,784.297 742,781.588ZM693.5,535.905C737.365,535.36 742.236,535.131 750.046,533.243C761.374,530.504 774.565,525.101 783.454,519.561C792.691,513.804 804.941,501.04 809.059,492.883C816.486,478.17 819.823,452.694 818.027,424.428C816.505,400.487 812.474,387.349 802.681,374.41C790.529,358.355 771.437,347.315 749.195,343.482C741.861,342.219 727.645,342.024 658.345,342.242L576.189,342.5L585.644,365C590.844,377.375 596.249,390.313 597.656,393.75L600.213,400L661.356,400.006C694.985,400.009 725.093,400.437 728.263,400.956C741.727,403.161 751.107,410.052 754.716,420.391C756.927,426.722 757.185,446.835 755.158,454.717C753.319,461.867 748.845,468.25 743.076,471.951C733.791,477.91 732.886,477.964 642.183,477.983L559.865,478L560.573,480.25C560.962,481.488 563.878,488.8 567.052,496.5C574.061,513.5 598.998,574.902 621.473,630.5C630.589,653.05 639.499,674.944 641.274,679.152L644.5,686.805L645.5,536.5L693.5,535.905ZM773.152,612.997C774.061,612.999 775.236,611.762 775.765,610.25C776.293,608.738 780.925,598.613 786.058,587.75L795.391,568L932.815,568L951.684,612.5L987.77,612.762L1023.86,613.025L1019.52,603.262C1017.14,597.893 1011.36,584.725 1006.67,574C999.024,556.519 976.768,505.687 963.979,476.5C961.328,470.45 955.117,456.275 950.177,445C945.236,433.725 932.82,405.481 922.584,382.236C912.348,358.991 903.253,338.174 902.374,335.976L900.774,331.979L858.325,332.239L815.875,332.5L810.518,342.782L805.161,353.065L809.254,357.782C827.546,378.865 835.151,406.564 833.635,446.586C833.3,455.433 832.543,466.233 831.954,470.586C830.614,480.471 825.374,496.116 820.899,503.584C813.52,515.902 798.474,529.245 783.5,536.752C769.325,543.859 747.04,548.982 730.253,548.994L722.006,549L706.023,580.955L690.039,612.91L696.77,613.205C700.471,613.367 718.8,613.386 737.5,613.247C756.2,613.108 772.243,612.995 773.152,612.997L773.152,612.997ZM822.002,508.885C822.001,508.546 824.2,503.371 826.89,497.385C829.579,491.398 835.717,477.5 840.529,466.5C845.342,455.5 852.816,438.479 857.14,428.675C861.463,418.872 865,410.434 865,409.925C865,406.086 868.492,413.15 880.488,441.25C888.059,458.987 896.71,479.092 899.712,485.927C905.698,499.56 909,507.685 909,508.787C909,509.179 889.426,509.5 865.502,509.5C841.578,509.5 822.003,509.223 822.002,508.885Z" style="fill:#f34537;fill-rule:nonzero;stroke:#f34537;stroke-width:1px;"/>
    </g>
</svg>
